<?xml version="1.0" encoding="utf-8"?>
<!-- Generator: Adobe Illustrator 16.0.0, SVG Export Plug-In . SVG Version: 6.00 Build 0)  -->
<!DOCTYPE svg PUBLIC "-//W3C//DTD SVG 1.1//EN" "http://www.w3.org/Graphics/SVG/1.1/DTD/svg11.dtd">
<svg version="1.1" id="Layer_1" xmlns="http://www.w3.org/2000/svg" xmlns:xlink="http://www.w3.org/1999/xlink" x="0px" y="0px"
	 width="348.75px" height="36.456px" viewBox="62.75 17.294 348.75 36.456" enable-background="new 62.75 17.294 348.75 36.456"
	 xml:space="preserve">
<g>
	<g>
		<polygon fill="#FFFFFF" points="342.865,23.929 336.399,42.744 330.182,23.929 328.082,23.929 321.867,42.744 315.485,23.929 
			312.713,23.929 320.776,46.691 322.875,46.691 329.09,28.381 335.307,46.691 337.406,46.691 345.469,23.929 		"/>
		<rect x="321.112" y="17.294" fill="#FFFFFF" width="15.959" height="2.353"/>
	</g>
	<g>
		<path fill="#FFFFFF" d="M65.19,35.268L65.19,35.268c0-6.468,4.788-11.759,11.423-11.759c4.116,0,6.552,1.428,8.819,3.611
			l-1.764,1.848c-1.932-1.848-4.031-3.107-7.056-3.107c-5.039,0-8.734,4.031-8.734,9.239v0.084c0,5.207,3.779,9.323,8.734,9.323
			c3.108,0,5.124-1.176,7.308-3.276l1.68,1.681c-2.352,2.352-4.955,3.947-9.071,3.947C69.978,46.943,65.19,41.819,65.19,35.268z"/>
		<g>
			<polygon fill="#FFFFFF" points="81.821,19.31 79.301,19.31 68.802,51.142 71.07,51.142 			"/>
		</g>
	</g>
	<path fill="#FFFFFF" d="M88.372,23.929h2.52v9.995h13.02v-9.995h2.52v22.594h-2.52V36.36h-13.02v10.163h-2.52V23.929z"/>
	<path fill="#FFFFFF" d="M135.071,23.929h9.743c2.771,0,5.039,0.84,6.384,2.268c1.092,1.092,1.764,2.688,1.764,4.451v0.085
		c0,3.779-2.604,5.963-6.132,6.551l6.972,9.239h-3.108l-6.551-8.735h-0.084h-6.384v8.735h-2.52V23.929H135.071z M144.562,35.436
		c3.359,0,5.795-1.764,5.795-4.619v-0.084c0-2.772-2.1-4.452-5.795-4.452h-6.972v9.155H144.562z"/>
	<path fill="#FFFFFF" d="M156.825,23.929h2.52v20.242h12.683v2.352h-15.286L156.825,23.929L156.825,23.929z"/>
	<path fill="#FFFFFF" d="M172.867,35.268L172.867,35.268c0-6.3,4.704-11.759,11.507-11.759c6.888,0,11.507,5.375,11.507,11.591
		c0,0,0,0,0,0.084c0,6.215-4.703,11.675-11.507,11.675C177.487,46.943,172.867,41.567,172.867,35.268z M193.277,35.268
		L193.277,35.268c0-5.208-3.779-9.407-8.903-9.407c-5.123,0-8.818,4.115-8.818,9.239v0.084c0,5.123,3.779,9.323,8.902,9.323
		C189.582,44.508,193.277,40.475,193.277,35.268z"/>
	<path fill="#FFFFFF" d="M204.112,26.281h-7.56v-2.352h17.723v2.352h-7.56v20.242h-2.604V26.281L204.112,26.281z"/>
	<path fill="#FFFFFF" d="M221.33,26.281h-7.559v-2.352h17.722v2.352h-7.559v20.242h-2.604V26.281z"/>
	<path fill="#FFFFFF" d="M234.685,23.929h16.293v2.352h-13.774v7.728h12.347v2.352h-12.347v7.896h13.942v2.352h-16.461V23.929z"/>
	<path fill="#FFFFFF" d="M262.739,23.929h7.811c7.055,0,12.012,4.871,12.012,11.255v0.084c0,6.383-4.873,11.255-12.012,11.255
		h-7.811V23.929z M270.549,44.172c5.711,0,9.322-3.864,9.322-8.903v-0.084c0-5.04-3.611-8.903-9.322-8.903h-5.291v17.891H270.549
		L270.549,44.172z"/>
	<path fill="#FFFFFF" d="M286.34,23.929h16.293v2.352H288.86v7.728h12.346v2.352H288.86v7.896h13.941v2.352H286.34V23.929z"/>
	<path fill="#FFFFFF" d="M348.744,23.929h2.52v22.594h-2.52V23.929z"/>
	<path fill="#FFFFFF" d="M362.268,26.281h-7.561v-2.352h17.723v2.352h-7.559v20.242h-2.604V26.281z"/>
	<path fill="#FFFFFF" d="M379.485,26.281h-7.559v-2.352h17.723v2.352h-7.559v20.242h-2.605V26.281z"/>
	<path fill="#FFFFFF" d="M392.84,23.929h16.295v2.352H395.36v7.728h12.348v2.352H395.36v7.896h13.943v2.352H392.84V23.929z"/>
	<polygon fill="#FFFFFF" points="121.969,23.761 119.617,23.761 109.286,46.523 111.889,46.523 120.793,26.785 129.528,46.523 
		132.3,46.523 	"/>
</g>
</svg>
