<?xml version="1.0" encoding="utf-8"?>
<!-- Generator: Adobe Illustrator 19.1.0, SVG Export Plug-In . SVG Version: 6.00 Build 0)  -->
<svg version="1.1" id="Capa_1" xmlns="http://www.w3.org/2000/svg" xmlns:xlink="http://www.w3.org/1999/xlink" x="0px" y="0px"
	 viewBox="-256 348.2 97.8 97.8" style="enable-background:new -256 348.2 97.8 97.8;" xml:space="preserve">
<style type="text/css">
	.st0{fill:#FFFFFF;}
</style>
<g>
	<path class="st0" d="M-207.1,348.2c-27,0-48.9,21.9-48.9,48.9c0,27,21.9,48.9,48.9,48.9s48.9-21.9,48.9-48.9
		S-180.1,348.2-207.1,348.2z M-248.3,410.4c0,0.2-0.2,0.3-0.3,0.3c-0.2,0-0.3-0.1-0.3-0.3l-0.6-4.6l0.6-4.7c0-0.2,0.2-0.3,0.3-0.3
		c0.2,0,0.3,0.1,0.3,0.3l0.7,4.7L-248.3,410.4z M-245.1,413.2c0,0.2-0.2,0.3-0.4,0.3c-0.2,0-0.3-0.1-0.4-0.3l-0.8-7.5l0.8-7.6
		c0-0.2,0.2-0.3,0.4-0.3c0.2,0,0.3,0.1,0.4,0.3l0.9,7.6L-245.1,413.2z M-241.7,414.5c0,0.2-0.2,0.4-0.4,0.4c-0.2,0-0.4-0.2-0.4-0.4
		l-0.8-8.7c0,0,0.8-9,0.8-9c0-0.2,0.2-0.4,0.4-0.4c0.2,0,0.4,0.2,0.4,0.4l0.9,9L-241.7,414.5z M-238.3,414.8c0,0.3-0.2,0.5-0.5,0.5
		c-0.3,0-0.5-0.2-0.5-0.5l-0.7-9l0.7-9.3c0-0.3,0.2-0.5,0.5-0.5c0.3,0,0.5,0.2,0.5,0.5l0.9,9.3L-238.3,414.8z M-234.8,414.9
		c0,0.3-0.3,0.6-0.6,0.6c-0.3,0-0.6-0.2-0.6-0.6l-0.7-9.1l0.7-8.6c0-0.3,0.3-0.6,0.6-0.6c0.3,0,0.5,0.2,0.6,0.6l0.8,8.6
		L-234.8,414.9z M-231.3,414.9L-231.3,414.9c0,0.4-0.3,0.6-0.6,0.6c-0.3,0-0.6-0.3-0.6-0.6l-0.7-9.1l0.7-14c0-0.4,0.3-0.6,0.6-0.6
		c0.3,0,0.6,0.3,0.6,0.6l0.8,14L-231.3,414.9z M-227.9,414.9L-227.9,414.9c0,0.4-0.3,0.7-0.7,0.7c-0.4,0-0.7-0.3-0.7-0.7l-0.6-9
		c0,0,0.6-17.2,0.6-17.2c0-0.4,0.3-0.7,0.7-0.7c0.4,0,0.7,0.3,0.7,0.7l0.7,17.2L-227.9,414.9z M-224.3,414.7L-224.3,414.7
		c0,0.4-0.4,0.8-0.8,0.8c-0.4,0-0.8-0.3-0.8-0.8l-0.6-8.9c0,0,0.6-18.7,0.6-18.7c0-0.4,0.4-0.8,0.8-0.8c0.4,0,0.8,0.3,0.8,0.8
		l0.7,18.7L-224.3,414.7z M-220.7,414.7c0,0.5-0.4,0.9-0.9,0.9c-0.5,0-0.8-0.4-0.9-0.8l-0.5-8.9l0.5-19.3c0-0.5,0.4-0.9,0.9-0.9
		c0.5,0,0.8,0.4,0.9,0.9l0.6,19.3L-220.7,414.7z M-217.1,414.6L-217.1,414.6c0,0.5-0.4,0.9-0.9,0.9c-0.5,0-0.9-0.4-0.9-0.9l-0.5-8.8
		l0.5-18.8c0-0.5,0.4-0.9,0.9-0.9c0.5,0,0.9,0.4,0.9,0.9l0.6,18.8L-217.1,414.6z M-213.5,414.5L-213.5,414.5c0,0.6-0.5,1-1,1
		c-0.6,0-1-0.4-1-1l-0.4-8.7l0.4-18.1c0-0.6,0.5-1,1-1c0.6,0,1,0.4,1,1l0.5,18.1L-213.5,414.5z M-209.8,413.6l0,0.9
		c0,0.3-0.1,0.6-0.3,0.8c-0.2,0.2-0.5,0.3-0.8,0.3c-0.3,0-0.6-0.2-0.8-0.4c-0.1-0.2-0.2-0.4-0.2-0.6c0,0,0,0,0,0
		c0,0-0.4-8.7-0.4-8.7l0.4-21.4l0-0.2c0-0.4,0.2-0.7,0.5-0.9c0.2-0.1,0.4-0.2,0.6-0.2c0.2,0,0.4,0.1,0.6,0.2
		c0.3,0.2,0.5,0.5,0.5,0.9l0.5,21.6L-209.8,413.6z M-206.2,414.3L-206.2,414.3L-206.2,414.3c0,0.6-0.5,1.1-1.1,1.1
		c-0.6,0-1.1-0.5-1.2-1.1l-0.2-4.2l-0.2-4.3l0.5-23.4l0-0.1c0-0.4,0.2-0.7,0.4-0.9c0.2-0.2,0.5-0.3,0.7-0.3c0.2,0,0.4,0.1,0.6,0.2
		c0.3,0.2,0.6,0.6,0.6,1l0.5,23.5L-206.2,414.3z M-175.1,415.5c0,0-28.9,0-28.9,0c-0.6-0.1-1.1-0.6-1.1-1.2c0,0,0-33.1,0-33.1
		c0-0.6,0.2-0.9,1-1.2c2-0.8,4.3-1.2,6.7-1.2c9.6,0,17.5,7.4,18.3,16.8c1.2-0.5,2.6-0.8,4-0.8c5.8,0,10.4,4.7,10.4,10.4
		C-164.7,410.9-169.4,415.5-175.1,415.5z"/>
</g>
</svg>
